<svg xmlns="http://www.w3.org/2000/svg" style="display: none;">
    <symbol id="arrow" viewBox="0 0 10 6">
        <path d="M5 2.55L1.55 6L0.5 4.95L5 0.45L9.5 4.95L8.45 6L5 2.55Z" fill="currentColor"/>
    </symbol>
    <symbol id="list" viewBox="0 0 18 21">
        <path d="M0 16.15V9C0 8.46667 0.195833 8.01667 0.5875 7.65C0.979167 7.28333 1.44167 7.11667 1.975 7.15C3.29167 7.35 4.54583 7.7375 5.7375 8.3125C6.92917 8.8875 8.01667 9.63333 9 10.55C9.98333 9.63333 11.0708 8.8875 12.2625 8.3125C13.4542 7.7375 14.7083 7.35 16.025 7.15C16.5583 7.11667 17.0208 7.28333 17.4125 7.65C17.8042 8.01667 18 8.46667 18 9V16.15C18 16.6833 17.825 17.1375 17.475 17.5125C17.125 17.8875 16.6833 18.0917 16.15 18.125C15.0833 18.2917 14.05 18.5667 13.05 18.95C12.05 19.3333 11.1167 19.8417 10.25 20.475C10.0667 20.625 9.87083 20.7375 9.6625 20.8125C9.45417 20.8875 9.23333 20.925 9 20.925C8.76667 20.925 8.54583 20.8875 8.3375 20.8125C8.12917 20.7375 7.93333 20.625 7.75 20.475C6.88333 19.8417 5.95 19.3333 4.95 18.95C3.95 18.5667 2.91667 18.2917 1.85 18.125C1.31667 18.0917 0.875 17.8875 0.525 17.5125C0.175 17.1375 0 16.6833 0 16.15ZM9 18.9C10.05 18.1167 11.1667 17.4917 12.35 17.025C13.5333 16.5583 14.75 16.25 16 16.1V9.2C14.7833 9.41667 13.5875 9.85417 12.4125 10.5125C11.2375 11.1708 10.1 12.05 9 13.15C7.9 12.05 6.7625 11.1708 5.5875 10.5125C4.4125 9.85417 3.21667 9.41667 2 9.2V16.1C3.25 16.25 4.46667 16.5583 5.65 17.025C6.83333 17.4917 7.95 18.1167 9 18.9ZM9 8C7.9 8 6.95833 7.60833 6.175 6.825C5.39167 6.04167 5 5.1 5 4C5 2.9 5.39167 1.95833 6.175 1.175C6.95833 0.391667 7.9 0 9 0C10.1 0 11.0417 0.391667 11.825 1.175C12.6083 1.95833 13 2.9 13 4C13 5.1 12.6083 6.04167 11.825 6.825C11.0417 7.60833 10.1 8 9 8ZM9 6C9.55 6 10.0208 5.80417 10.4125 5.4125C10.8042 5.02083 11 4.55 11 4C11 3.45 10.8042 2.97917 10.4125 2.5875C10.0208 2.19583 9.55 2 9 2C8.45 2 7.97917 2.19583 7.5875 2.5875C7.19583 2.97917 7 3.45 7 4C7 4.55 7.19583 5.02083 7.5875 5.4125C7.97917 5.80417 8.45 6 9 6Z" fill="currentColor"/>
    </symbol>
</svg>